<svg width="48" height="48" viewBox="0 0 48 48" fill="none" xmlns="http://www.w3.org/2000/svg">
<rect width="48" height="48" rx="6" fill="black"/>
<path d="M28.7207 12C28.7778 12 28.8349 12 28.8952 12C29.0353 13.6925 28.3749 14.9572 27.5724 15.873C26.7849 16.7825 25.7066 17.6646 23.9626 17.5308C23.8462 15.8625 24.5076 14.6916 25.3091 13.7779C26.0524 12.9264 27.4151 12.1686 28.7207 12Z" fill="white"/>
<path d="M34 29.6169C34 29.6337 34 29.6485 34 29.6643C33.5099 31.1165 32.8107 32.3612 31.9576 33.5162C31.1787 34.5648 30.2243 35.976 28.5201 35.976C27.0475 35.976 26.0694 35.0496 24.5602 35.0243C22.9637 34.999 22.0857 35.7989 20.6261 36.0002C20.4591 36.0002 20.2921 36.0002 20.1284 36.0002C19.0566 35.8485 18.1915 35.018 17.5613 34.2698C15.7031 32.0587 14.2672 29.2027 14 25.5478C14 25.1895 14 24.8323 14 24.4739C14.1131 21.8582 15.4123 19.7315 17.1391 18.7008C18.0504 18.1528 19.3032 17.6859 20.6983 17.8946C21.2961 17.9852 21.9069 18.1854 22.4423 18.3836C22.9497 18.5743 23.5842 18.9126 24.1853 18.8947C24.5925 18.8831 24.9975 18.6755 25.408 18.529C26.6101 18.1043 27.7886 17.6174 29.342 17.8461C31.2089 18.1222 32.5339 18.9337 33.3526 20.1857C31.7733 21.169 30.5248 22.6507 30.7381 25.1811C30.9277 27.4796 32.2937 28.8244 34 29.6169Z" fill="white"/>
</svg>
