<svg width="48" height="48" viewBox="0 0 48 48" fill="none" xmlns="http://www.w3.org/2000/svg">
<rect x="0.5" y="0.5" width="47" height="47" rx="5.5" fill="white"/>
<path d="M35.0952 21.9131H25.3051C24.8734 21.9131 24.5239 22.2626 24.5239 22.6942V25.824C24.5239 26.2557 24.8734 26.6052 25.3051 26.6052H30.8194C30.2181 28.1726 29.0875 29.4831 27.6537 30.3157L30.0023 34.3859C33.7693 32.2069 35.9997 28.3782 35.9997 24.0972C35.9997 23.4857 35.9535 23.0488 35.8661 22.5606C35.7942 22.1855 35.4704 21.9131 35.0952 21.9131Z" fill="#167EE6"/>
<path d="M23.9996 31.3029C21.3015 31.3029 18.9478 29.8279 17.6835 27.6489L13.6133 29.9924C15.6844 33.5847 19.5645 36.0001 23.9996 36.0001C26.1786 36.0001 28.2291 35.4142 30.0021 34.3915V34.3864L27.6535 30.3162C26.5743 30.9431 25.3306 31.3029 23.9996 31.3029Z" fill="#12B347"/>
<path d="M29.9974 34.3913V34.3862L27.6488 30.3159C26.5747 30.9378 25.331 31.3026 24 31.3026V35.9999C26.179 35.9999 28.2296 35.414 29.9974 34.3913Z" fill="#0F993E"/>
<path d="M16.6972 23.9996C16.6972 22.6686 17.0621 21.4249 17.6839 20.3508L13.6137 18.0073C12.5859 19.7701 12 21.8155 12 23.9996C12 26.1838 12.5859 28.2292 13.6137 29.9919L17.6839 27.6484C17.057 26.5743 16.6972 25.3307 16.6972 23.9996Z" fill="#FFD500"/>
<path d="M23.9996 16.6972C25.7572 16.6972 27.376 17.3242 28.6351 18.3623C28.9486 18.6193 29.4009 18.5987 29.6835 18.3161L31.8985 16.1011C32.2223 15.7773 32.1966 15.248 31.8523 14.9499C29.74 13.1101 26.9906 12 23.9996 12C19.5645 12 15.6844 14.4154 13.6133 18.0077L17.6835 20.3512C18.9478 18.1722 21.3015 16.6972 23.9996 16.6972Z" fill="#FF4B26"/>
<path d="M28.6355 18.3623C28.949 18.6193 29.4013 18.5987 29.6839 18.3161L31.8989 16.1011C32.2227 15.7773 32.197 15.248 31.8527 14.9499C29.7405 13.1101 26.991 12 24 12V16.6972C25.7576 16.6972 27.3764 17.3191 28.6355 18.3623Z" fill="#D93F21"/>
<rect x="0.5" y="0.5" width="47" height="47" rx="5.5" stroke="#D9D9D9"/>
</svg>
