<svg width="24" height="24" viewBox="0 0 24 24" fill="none" xmlns="http://www.w3.org/2000/svg">
<path d="M14.6316 3H3C2.44771 3 2 3.44772 2 4V19.9147C2 20.3415 2.50047 20.5721 2.82493 20.2947L5.9299 17.6399C6.11101 17.4851 6.34146 17.4 6.57975 17.4H19.9474C20.4997 17.4 20.9474 16.9523 20.9474 16.4V11.7429" stroke="#4A4A4A" stroke-width="1.5" stroke-linecap="round"/>
<path d="M19.1791 3.48399C19.489 3.1741 19.9093 3 20.3476 3C20.7858 3 21.2061 3.1741 21.516 3.48399C21.8259 3.79388 22 4.21418 22 4.65243C22 5.09068 21.8259 5.51099 21.516 5.82088L14.1159 13.221L11 14L11.779 10.8841L19.1791 3.48399Z" stroke="#4A4A4A" stroke-width="1.5" stroke-linecap="round" stroke-linejoin="round"/>
<path d="M5 10H9" stroke="#4A4A4A" stroke-width="1.5" stroke-linecap="round"/>
<path d="M5 6H11" stroke="#4A4A4A" stroke-width="1.5" stroke-linecap="round"/>
<path d="M5 14H8" stroke="#4A4A4A" stroke-width="1.5" stroke-linecap="round"/>
</svg>
