<svg width="24" height="24" viewBox="0 0 24 24" fill="none" xmlns="http://www.w3.org/2000/svg">
<path d="M5 10.845L2.70953 9.43636C2.38808 9.23867 2.39312 8.76974 2.71876 8.57901L11.9849 3.15169C12.1443 3.05833 12.3422 3.06046 12.4996 3.15723L21.5064 8.69645C21.73 8.83397 21.7265 9.16018 21.5 9.29286V9.29286M5 10.845L11.5004 14.8428C11.6578 14.9395 11.8557 14.9417 12.0151 14.8483L18.5 11.05M5 10.845V16.3918C5 16.7654 5.20827 17.1079 5.54001 17.2798L9.45407 19.3074C10.8975 20.0552 12.6144 20.0546 14.0572 19.3057L17.9606 17.2799C18.292 17.1079 18.5 16.7657 18.5 16.3923V11.05M18.5 11.05L21.5 9.29286M21.5 9.29286V13.5" stroke="#4A4A4A" stroke-width="1.5" stroke-linecap="round"/>
<circle cx="21.5" cy="14" r="1" fill="#4A4A4A"/>
</svg>
