<svg width="24" height="24" viewBox="0 0 24 24" fill="none" xmlns="http://www.w3.org/2000/svg">
<path d="M19 4H5C3.89543 4 3 4.89543 3 6V20C3 21.1046 3.89543 22 5 22H19C20.1046 22 21 21.1046 21 20V6C21 4.89543 20.1046 4 19 4Z" stroke="#4A4A4A" stroke-width="1.5" stroke-linecap="round" stroke-linejoin="round"/>
<path d="M16 2V6" stroke="#4A4A4A" stroke-width="1.5" stroke-linecap="round" stroke-linejoin="round"/>
<path d="M8 2V6" stroke="#4A4A4A" stroke-width="1.5" stroke-linecap="round" stroke-linejoin="round"/>
<path fill-rule="evenodd" clip-rule="evenodd" d="M12.1745 10.6441C12.0982 10.5077 11.9018 10.5077 11.8255 10.6441L11.276 11.6261C10.9019 12.2948 10.2575 12.7664 9.5106 12.9182L8.41091 13.1417C8.25867 13.1727 8.19829 13.3578 8.30301 13.4725L9.06314 14.3055C9.57881 14.8705 9.82494 15.6336 9.73747 16.3961L9.60872 17.5183C9.59094 17.6732 9.7495 17.788 9.89115 17.7227L10.9089 17.2534C11.6018 16.934 12.3983 16.934 13.0911 17.2534L14.1088 17.7227C14.2505 17.788 14.4091 17.6732 14.3913 17.5183L14.2625 16.3961C14.1751 15.6336 14.4212 14.8705 14.9369 14.3055L15.697 13.4725C15.8017 13.3578 15.7413 13.1727 15.5891 13.1417L14.4894 12.9182C13.7425 12.7664 13.0981 12.2948 12.724 11.6261L12.1745 10.6441ZM12.9136 8.73771C12.5124 8.02078 11.4876 8.02078 11.0864 8.73771L9.90563 10.848C9.75598 11.1155 9.49823 11.3042 9.19947 11.3649L6.84219 11.844C6.04137 12.0068 5.72467 12.9887 6.27757 13.5945L7.90508 15.3779C8.11135 15.6039 8.2098 15.9092 8.17481 16.2141L7.89872 18.6206C7.80493 19.4381 8.63407 20.045 9.37692 19.7025L11.5636 18.6943C11.8407 18.5666 12.1593 18.5666 12.4364 18.6943L14.6231 19.7025C15.3659 20.045 16.1951 19.4381 16.1013 18.6206L15.8252 16.2141C15.7902 15.9092 15.8886 15.6039 16.0949 15.3779L17.7224 13.5945C18.2753 12.9887 17.9586 12.0068 17.1578 11.844L14.8005 11.3649C14.5018 11.3042 14.244 11.1155 14.0944 10.848L12.9136 8.73771Z" fill="#4A4A4A"/>
</svg>
