<svg width="24" height="24" viewBox="0 0 24 24" fill="none" xmlns="http://www.w3.org/2000/svg">
<path d="M12.0002 15.6125C11.6374 15.6125 11.3434 15.3184 11.3434 14.9557V12.6568H9.04451C8.68175 12.6568 8.3877 12.3628 8.3877 12C8.3877 11.6372 8.68175 11.3432 9.04451 11.3432H11.3434V9.04433C11.3434 8.68157 11.6374 8.38751 12.0002 8.38751C12.3629 8.38751 12.657 8.68157 12.657 9.04433V11.3432H14.9558C15.3186 11.3432 15.6127 11.6372 15.6127 12C15.6127 12.3628 15.3186 12.6568 14.9558 12.6568H12.657V14.9557C12.657 15.3184 12.3629 15.6125 12.0002 15.6125Z" fill="#4A4A4A" stroke="#4A4A4A" stroke-width="0.3"/>
<path fill-rule="evenodd" clip-rule="evenodd" d="M12 8.53531C11.7189 8.53531 11.491 8.7632 11.491 9.04434V11.491H9.04434C8.7632 11.491 8.53531 11.7189 8.53531 12C8.53531 12.2811 8.7632 12.509 9.04434 12.509H11.491V14.9557C11.491 15.2368 11.7189 15.4647 12 15.4647C12.2811 15.4647 12.509 15.2368 12.509 14.9557V12.509H14.9557C15.2368 12.509 15.4647 12.2811 15.4647 12C15.4647 11.7189 15.2368 11.491 14.9557 11.491H12.509V9.04434C12.509 8.7632 12.2811 8.53531 12 8.53531ZM11.1954 9.04434C11.1954 8.59997 11.5556 8.23975 12 8.23975C12.4444 8.23975 12.8046 8.59997 12.8046 9.04434V11.1954H14.9557C15.4001 11.1954 15.7603 11.5556 15.7603 12C15.7603 12.4444 15.4001 12.8046 14.9557 12.8046H12.8046V14.9557C12.8046 15.4001 12.4444 15.7603 12 15.7603C11.5556 15.7603 11.1954 15.4001 11.1954 14.9557V12.8046H9.04434C8.59997 12.8046 8.23975 12.4444 8.23975 12C8.23975 11.5556 8.59997 11.1954 9.04434 11.1954H11.1954V9.04434Z" fill="#4A4A4A"/>
<rect x="2.75" y="2.75" width="18.5" height="18.5" rx="4.25" stroke="#4A4A4A" stroke-width="1.5"/>
</svg>
