<svg width="24" height="24" viewBox="0 0 24 24" fill="none" xmlns="http://www.w3.org/2000/svg">
<path d="M13.0589 21.1369L13.0589 21.1369C13.0292 21.2349 13.055 21.3416 13.1269 21.4153L12.7688 21.7643L13.1266 21.415C13.1803 21.4701 13.2533 21.5 13.3282 21.5C13.353 21.5 13.3779 21.4967 13.4021 21.4899L13.4032 21.4896L16.5562 20.6163L13.0589 21.1369ZM13.0589 21.1369L13.9931 18.0618L13.9931 18.0617C14.0066 18.0172 14.0308 17.9769 14.0635 17.9442L18.3526 13.6647L18.353 13.6643M13.0589 21.1369L18.353 13.6643M18.353 13.6643C19.0709 12.9465 20.2413 12.9463 20.96 13.665M18.353 13.6643L20.96 13.665M7.81535 8.09687L7.81537 8.09688L9.63868 5.89015L7.81535 8.09687ZM7.81535 8.09687L7.81248 8.1004M7.81535 8.09687L7.81248 8.1004M7.81248 8.1004C7.6625 8.28534 7.43942 8.40096 7.2014 8.41694L7.81248 8.1004ZM6.55059 8.1816L6.55058 8.18161C6.71023 8.33367 6.9247 8.41889 7.14461 8.41889L6.55059 8.1816ZM6.55059 8.1816L6.54758 8.17878M6.55059 8.1816L6.54758 8.17878M6.54758 8.17878C6.54758 8.17878 6.54757 8.17878 6.54756 8.17877C6.5474 8.17861 6.54594 8.1772 6.54229 8.17347C6.54215 8.17333 6.54202 8.17319 6.54187 8.17305L5.70475 7.31337L5.70474 7.31335M6.54758 8.17878L5.70474 7.31335M5.70474 7.31335C5.59649 7.20219 5.59871 7.02421 5.71002 6.91567C5.82132 6.80728 5.9993 6.80963 6.1077 6.92095L6.10771 6.92096M5.70474 7.31335L6.10771 6.92096M6.10771 6.92096L6.77375 7.60485L7.16251 8.00403M6.10771 6.92096L7.16251 8.00403M7.16251 8.00403L7.51741 7.57446M7.16251 8.00403L7.51741 7.57446M7.51741 7.57446L9.20502 5.53178L9.20503 5.53178M7.51741 7.57446L9.20503 5.53178M9.20503 5.53178C9.30397 5.41202 9.48131 5.39523 9.60086 5.49405L9.60095 5.49412M9.20503 5.53178L9.60095 5.49412M9.60095 5.49412C9.72064 5.593 9.73758 5.77021 9.63878 5.89002L9.60095 5.49412ZM7.2014 13.2167C7.18168 13.218 7.16268 13.2187 7.14461 13.2187C6.9246 13.2187 6.71021 13.1335 6.55031 12.9813L6.54375 12.9749L6.54332 12.9744L5.70532 12.1186L5.70531 12.1185C5.59668 12.0076 5.59856 11.8295 5.70948 11.7209L5.70957 11.7208C5.82047 11.6121 5.99846 11.614 6.10705 11.725L6.10717 11.7251L6.77428 12.4062L7.16306 12.8032L7.51696 12.3748L9.20503 10.3315C9.30386 10.2119 9.48125 10.195 9.60097 10.2939C9.72064 10.3928 9.73758 10.57 9.63877 10.6898C9.63874 10.6898 9.63871 10.6899 9.63868 10.6899L7.81536 12.8968L7.81534 12.8968L7.81256 12.9002C7.66243 13.0852 7.43923 13.2009 7.2014 13.2167ZM7.2014 13.2167L7.23449 13.7156L7.20135 13.2167C7.20136 13.2167 7.20138 13.2167 7.2014 13.2167ZM7.2014 17.9432C7.18168 17.9445 7.16268 17.9452 7.14461 17.9452C6.9246 17.9452 6.71021 17.86 6.55031 17.7078L6.54375 17.7014L6.54332 17.7009L5.70532 16.8451L5.70531 16.8451C5.59668 16.7341 5.59856 16.556 5.70948 16.4474L5.70956 16.4473C5.82047 16.3387 5.99846 16.3405 6.10705 16.4515L6.10717 16.4516L6.77428 17.1328L7.16306 17.5297L7.51696 17.1014L9.20503 15.0581C9.30386 14.9384 9.48125 14.9215 9.60097 15.0204C9.72064 15.1193 9.73758 15.2965 9.63877 15.4163C9.63874 15.4164 9.63871 15.4164 9.63868 15.4164L7.81536 17.6233L7.81534 17.6233L7.81256 17.6268C7.66243 17.8118 7.43923 17.9274 7.2014 17.9432ZM7.2014 17.9432L7.23449 18.4421L7.20135 17.9432C7.20136 17.9432 7.20138 17.9432 7.2014 17.9432ZM20.96 13.665C21.6784 14.3835 21.6784 15.5538 20.9599 16.2726L16.6803 20.5441M20.96 13.665L16.6803 20.5441M16.6803 20.5441C16.646 20.5783 16.6033 20.6031 16.5565 20.6162L16.6803 20.5441ZM16.2084 20.129L16.3351 20.0939L16.4281 20.001L19.3052 17.1293L19.6594 16.7757L19.3055 16.4219L18.2003 15.3168L17.8471 14.9637L17.4936 15.3165L14.5996 18.2042L14.5108 18.2928L14.4744 18.4128L14.01 19.9412L13.7458 20.8111L14.6219 20.5684L16.2084 20.129ZM20.5623 15.8745L20.5626 15.8741C21.0623 15.3745 21.0617 14.5624 20.5623 14.0627L20.5621 14.0625C20.0622 13.5628 19.2501 13.5627 18.7502 14.0626L18.5996 14.2128L18.2454 14.5664L18.5993 14.9203L19.7042 16.0252L20.0574 16.3784L20.4109 16.0255L20.5623 15.8745ZM10.4452 21.2186C10.4452 21.374 10.3194 21.4998 10.164 21.4998H5.12498C3.67809 21.4998 2.5 20.3219 2.5 18.8749V5.12498C2.5 3.67797 3.67809 2.5 5.12498 2.5H14.73C16.177 2.5 17.355 3.67796 17.355 5.12498V11.1406C17.355 11.2959 17.2291 11.4218 17.0737 11.4218C16.9184 11.4218 16.7925 11.2959 16.7925 11.1406V5.12498C16.7925 3.98733 15.8677 3.06249 14.73 3.06249H5.12498C3.98733 3.06249 3.06249 3.98733 3.06249 5.12498V18.8749C3.06249 20.0125 3.98733 20.9374 5.12498 20.9374H10.164C10.3194 20.9374 10.4452 21.0632 10.4452 21.2186ZM14.2343 7.82027C14.2343 7.97564 14.1084 8.10151 13.953 8.10151H11.6484C11.493 8.10151 11.3671 7.97564 11.3671 7.82027C11.3671 7.6649 11.493 7.53902 11.6484 7.53902H13.953C14.1084 7.53902 14.2343 7.66489 14.2343 7.82027ZM13.953 12.9062H11.6484C11.493 12.9062 11.3671 12.7803 11.3671 12.6249C11.3671 12.4695 11.493 12.3437 11.6484 12.3437H13.953C14.1084 12.3437 14.2343 12.4695 14.2343 12.6249C14.2343 12.7803 14.1084 12.9062 13.953 12.9062Z" fill="#4A4A4A" stroke="#4A4A4A"/>
</svg>
