<svg width="24" height="24" viewBox="0 0 24 24" fill="none" xmlns="http://www.w3.org/2000/svg">
<path d="M8.11104 8.28571L10.3333 2H13.6666L15.8888 8.28571M8.11104 8.28571L11.5189 20.3036C11.6564 20.7884 12.3435 20.7884 12.481 20.3036L15.8888 8.28571M8.11104 8.28571H15.8888M8.11104 8.28571H2.49996M15.8888 8.28571H21.5M18.8075 2.26575L21.8535 8.0095C21.9431 8.17848 21.9284 8.38379 21.8157 8.53834L12.4039 21.4459C12.2042 21.7198 11.7956 21.7198 11.5959 21.4459L2.18413 8.53834C2.07144 8.38379 2.05679 8.17848 2.14641 8.0095L5.19233 2.26575C5.27905 2.10224 5.44899 2 5.63407 2H18.3658C18.5509 2 18.7208 2.10224 18.8075 2.26575Z" stroke="#4A4A4A" stroke-width="1.5"/>
</svg>
