<svg width="24" height="24" viewBox="0 0 24 24" fill="none" xmlns="http://www.w3.org/2000/svg">
<path d="M4 2H20C20.5304 2 21.0391 2.23413 21.4142 2.65087C21.7893 3.06762 22 3.63285 22 4.22222V10.8889C22 13.8357 20.9464 16.6619 19.0711 18.7456C17.1957 20.8294 14.6522 22 12 22C10.6868 22 9.38642 21.7126 8.17317 21.1542C6.95991 20.5958 5.85752 19.7774 4.92893 18.7456C3.05357 16.6619 2 13.8357 2 10.8889V4.22222C2 3.63285 2.21071 3.06762 2.58579 2.65087C2.96086 2.23413 3.46957 2 4 2Z" stroke="#4A4A4A" stroke-width="1.6" stroke-linecap="round" stroke-linejoin="round"/>
<path d="M16 15V14.1111C16 13.6396 15.7893 13.1874 15.4142 12.854C15.0391 12.5206 14.5304 12.3333 14 12.3333H10C9.46957 12.3333 8.96086 12.5206 8.58579 12.854C8.21071 13.1874 8 13.6396 8 14.1111V15" stroke="#4A4A4A" stroke-width="1.5" stroke-linecap="round" stroke-linejoin="round"/>
<path d="M11.7778 9.55556C12.7596 9.55556 13.5556 8.75962 13.5556 7.77778C13.5556 6.79594 12.7596 6 11.7778 6C10.7959 6 10 6.79594 10 7.77778C10 8.75962 10.7959 9.55556 11.7778 9.55556Z" stroke="#4A4A4A" stroke-width="1.5" stroke-linecap="round" stroke-linejoin="round"/>
</svg>
