<svg width="24" height="24" viewBox="0 0 24 24" fill="none" xmlns="http://www.w3.org/2000/svg">
<path d="M21 15C21 15.5304 20.7893 16.0391 20.4142 16.4142C20.0391 16.7893 19.5304 17 19 17H7L3 21V5C3 4.46957 3.21071 3.96086 3.58579 3.58579C3.96086 3.21071 4.46957 3 5 3H19C19.5304 3 20.0391 3.21071 20.4142 3.58579C20.7893 3.96086 21 4.46957 21 5V15Z" stroke="#4A4A4A" stroke-width="1.6" stroke-linecap="round" stroke-linejoin="round"/>
<path d="M15.6835 8.62817H13.886L14.239 7.54104C14.3485 7.20162 14.3465 6.8348 14.2333 6.49667C14.1201 6.15855 13.902 5.86775 13.6123 5.66876C13.3955 5.52262 13.1318 5.46848 12.8769 5.51778C12.6219 5.56707 12.3955 5.71594 12.2455 5.93299L10.3257 8.74309C10.2501 8.6693 10.1498 8.62816 10.0455 8.62817H8.40909C8.30059 8.62817 8.19654 8.67235 8.11982 8.75101C8.0431 8.82967 8 8.93635 8 9.04758V14.0806C8 14.1918 8.0431 14.2985 8.11982 14.3772C8.19654 14.4558 8.30059 14.5 8.40909 14.5H10.0455C10.154 14.5 10.258 14.4558 10.3347 14.3772C10.4114 14.2985 10.4545 14.1918 10.4545 14.0806V14.0252L11.0457 14.4295C11.113 14.4754 11.1919 14.4999 11.2727 14.5H14.9545C15.0306 14.5 15.1051 14.4784 15.1698 14.4374C15.2344 14.3964 15.2867 14.3378 15.3207 14.2681L16.8171 11.1992C16.937 10.9524 16.9996 10.6805 17 10.4048V9.97785C16.9996 9.62003 16.8607 9.27699 16.6139 9.02397C16.3672 8.77095 16.0326 8.62861 15.6835 8.62817ZM9.63636 13.6612H8.81818V9.467H9.63636V13.6612ZM16.1818 10.4048C16.1815 10.5504 16.1485 10.6939 16.0853 10.8242L14.7017 13.6612H11.3955L10.4545 13.0174V10.0185L12.916 6.41365C12.9424 6.37473 12.9826 6.34799 13.028 6.3392C13.0733 6.33041 13.1203 6.34028 13.1586 6.36667C13.2994 6.46326 13.4053 6.60449 13.4603 6.76872C13.5153 6.93295 13.5162 7.11113 13.463 7.27597L12.9312 8.91505C12.9107 8.978 12.9051 9.04503 12.9149 9.11062C12.9246 9.17622 12.9494 9.23852 12.9871 9.29239C13.0249 9.34627 13.0746 9.39019 13.1322 9.42054C13.1897 9.45089 13.2535 9.46682 13.3182 9.467H15.6835C15.8157 9.46711 15.9423 9.52097 16.0358 9.61675C16.1292 9.71253 16.1817 9.8424 16.1818 9.97785V10.4048Z" fill="#4A4A4A" stroke="#4A4A4A" stroke-width="0.5"/>
</svg>
