<svg width="24" height="24" viewBox="0 0 24 24" fill="none" xmlns="http://www.w3.org/2000/svg">
<rect x="5" y="2" width="14" height="16" rx="1" stroke="#4A4A4A" stroke-width="1.5"/>
<path d="M19 8H21.5C21.7761 8 22 8.22386 22 8.5V21.5C22 21.7761 21.7761 22 21.5 22H2.5C2.22386 22 2 21.7761 2 21.5V8.5C2 8.22386 2.22386 8 2.5 8H5.5" stroke="#4A4A4A" stroke-width="1.5"/>
<path d="M8 7L8.64645 7.64645C8.84171 7.84171 9.15829 7.84171 9.35355 7.64645L11 6" stroke="#4A4A4A" stroke-width="1.5" stroke-linecap="round"/>
<rect x="13" y="6.5" width="4" height="1" rx="0.5" stroke="#4A4A4A"/>
<path d="M8 13L8.64645 13.6464C8.84171 13.8417 9.15829 13.8417 9.35355 13.6464L11 12" stroke="#4A4A4A" stroke-width="1.5" stroke-linecap="round"/>
<rect x="13" y="12.5" width="4" height="1" rx="0.5" stroke="#4A4A4A"/>
</svg>
