<svg width="24" height="24" viewBox="0 0 24 24" fill="none" xmlns="http://www.w3.org/2000/svg">
<path d="M16 2H6C5.46957 2 4.96086 2.21071 4.58579 2.58579C4.21071 2.96086 4 3.46957 4 4V20C4 20.5304 4.21071 21.0391 4.58579 21.4142C4.96086 21.7893 5.46957 22 6 22H18C18.5304 22 19.0391 21.7893 19.4142 21.4142C19.7893 21.0391 20 20.5304 20 20V5.5L16 2Z" stroke="#4A4A4A" stroke-width="1.5" stroke-linecap="round" stroke-linejoin="round"/>
<path d="M16 2V6H20" stroke="#4A4A4A" stroke-width="1.5" stroke-linecap="round" stroke-linejoin="round"/>
<path d="M15 19H10" stroke="#4A4A4A" stroke-width="1.5" stroke-linecap="round" stroke-linejoin="round"/>
<path d="M16 16L9 16" stroke="#4A4A4A" stroke-width="1.5" stroke-linecap="round" stroke-linejoin="round"/>
<path d="M13.6501 13.5H7.84868C7.61079 13.5 7.41797 13.3072 7.41797 13.0693V11.6793C7.41797 11.4415 7.61079 11.2486 7.84868 11.2486H17.038C17.2759 11.2486 17.4687 11.4415 17.4687 11.6793V13.0693C17.4687 13.3072 17.2759 13.5 17.038 13.5H15.5011" stroke="#4A4A4A" stroke-width="1.2" stroke-miterlimit="10" stroke-linecap="round" stroke-linejoin="round"/>
<path d="M13.3941 7.94536L13.3984 7.9452C15.2229 7.9452 16.7019 9.42426 16.7019 11.2487H8.18457C8.18457 9.42426 9.66357 7.9452 11.488 7.9452H11.4923" stroke="#4A4A4A" stroke-width="1.2" stroke-miterlimit="10" stroke-linecap="round" stroke-linejoin="round"/>
<path d="M13.0176 7.00002H11.8686C11.6607 7.00002 11.4922 7.16856 11.4922 7.37639V11.2487H13.394V7.37639C13.394 7.16856 13.2255 7.00002 13.0176 7.00002Z" stroke="#4A4A4A" stroke-width="1.2" stroke-miterlimit="10" stroke-linecap="round" stroke-linejoin="round"/>
</svg>
