<svg width="24" height="24" viewBox="0 0 24 24" fill="none" xmlns="http://www.w3.org/2000/svg">
<path d="M18.12 17H5.88004C5.65544 17 5.4584 16.8502 5.39828 16.6338L3.28366 9.02117C3.17055 8.61397 3.58229 8.2588 3.96849 8.43044L7.13596 9.8382C7.34898 9.93288 7.59916 9.86779 7.73903 9.6813L11.576 4.56536C11.783 4.28938 12.2006 4.30097 12.392 4.58801L15.775 9.66244C15.9061 9.85917 16.1571 9.93714 16.3767 9.84933L20.0622 8.37511C20.4465 8.22141 20.8404 8.57442 20.7297 8.97317L18.6017 16.6338C18.5416 16.8502 18.3446 17 18.12 17Z" stroke="#4A4A4A" stroke-width="1.5"/>
<path d="M7 20L17 20" stroke="#4A4A4A" stroke-width="1.5" stroke-linecap="round"/>
</svg>
